<svg width="192" height="44" viewBox="0 0 192 44" fill="none" xmlns="http://www.w3.org/2000/svg">
<path d="M78.3983 0H3.13593C1.40486 0 0 1.40796 0 3.14286V40.8571C0 42.592 1.40486 44 3.13593 44H78.3983C80.1294 44 81.5342 42.592 81.5342 40.8571V3.14286C81.5342 1.40796 80.1294 0 78.3983 0ZM39.1992 9.42857H42.3351C44.0662 9.42857 45.471 10.8365 45.471 12.5714C45.471 14.3063 44.0662 15.7143 42.3351 15.7143H39.1992C37.4681 15.7143 36.0632 14.3063 36.0632 12.5714C36.0632 10.8365 37.4681 9.42857 39.1992 9.42857ZM39.1992 18.8571H42.3351C44.0662 18.8571 45.471 20.2651 45.471 22C45.471 23.7363 44.0662 25.1429 42.3351 25.1429H39.1992C37.4681 25.1429 36.0632 23.7349 36.0632 22C36.0632 20.2637 37.4681 18.8571 39.1992 18.8571ZM26.6554 9.42857H29.7914C31.5224 9.42857 32.9273 10.8365 32.9273 12.5714C32.9273 14.3063 31.5224 15.7143 29.7914 15.7143H26.6554C24.9244 15.7143 23.5195 14.3063 23.5195 12.5714C23.5195 10.8365 24.9244 9.42857 26.6554 9.42857ZM26.6554 18.8571H29.7914C31.5224 18.8571 32.9273 20.2651 32.9273 22C32.9273 23.7363 31.5224 25.1429 29.7914 25.1429H26.6554C24.9244 25.1429 23.5195 23.7349 23.5195 22C23.5195 20.2637 24.9244 18.8571 26.6554 18.8571ZM17.2476 34.5714H14.1117C12.3806 34.5714 10.9758 33.1635 10.9758 31.4286C10.9758 29.6937 12.3806 28.2857 14.1117 28.2857H17.2476C18.9787 28.2857 20.3836 29.6937 20.3836 31.4286C20.3836 33.1635 18.9787 34.5714 17.2476 34.5714ZM17.2476 25.1429H14.1117C12.3806 25.1429 10.9758 23.7349 10.9758 22C10.9758 20.2651 12.3806 18.8571 14.1117 18.8571H17.2476C18.9787 18.8571 20.3836 20.2651 20.3836 22C20.3836 23.7349 18.9787 25.1429 17.2476 25.1429ZM17.2476 15.7143H14.1117C12.3806 15.7143 10.9758 14.3063 10.9758 12.5714C10.9758 10.8365 12.3806 9.42857 14.1117 9.42857H17.2476C18.9787 9.42857 20.3836 10.8365 20.3836 12.5714C20.3836 14.3063 18.9787 15.7143 17.2476 15.7143ZM54.8788 34.5714H26.6554C24.9244 34.5714 23.5195 33.1635 23.5195 31.4286C23.5195 29.6937 24.9244 28.2857 26.6554 28.2857H54.8788C56.6099 28.2857 58.0148 29.6937 58.0148 31.4286C58.0148 33.1635 56.6099 34.5714 54.8788 34.5714ZM54.8788 25.1429H51.7429C50.0118 25.1429 48.607 23.7349 48.607 22C48.607 20.2651 50.0118 18.8571 51.7429 18.8571H54.8788C56.6099 18.8571 58.0148 20.2651 58.0148 22C58.0148 23.7349 56.6099 25.1429 54.8788 25.1429ZM54.8788 15.7143H51.7429C50.0118 15.7143 48.607 14.3063 48.607 12.5714C48.607 10.8365 50.0118 9.42857 51.7429 9.42857H54.8788C56.6099 9.42857 58.0148 10.8365 58.0148 12.5714C58.0148 14.3063 56.6099 15.7143 54.8788 15.7143ZM67.4225 34.5714H64.2866C62.5555 34.5714 61.1507 33.1635 61.1507 31.4286C61.1507 29.6937 62.5555 28.2857 64.2866 28.2857H67.4225C69.1536 28.2857 70.5585 29.6937 70.5585 31.4286C70.5585 33.1635 69.1536 34.5714 67.4225 34.5714ZM67.4225 25.1429H64.2866C62.5555 25.1429 61.1507 23.7349 61.1507 22C61.1507 20.2651 62.5555 18.8571 64.2866 18.8571H67.4225C69.1536 18.8571 70.5585 20.2651 70.5585 22C70.5585 23.7349 69.1536 25.1429 67.4225 25.1429ZM67.4225 15.7143H64.2866C62.5555 15.7143 61.1507 14.3063 61.1507 12.5714C61.1507 10.8365 62.5555 9.42857 64.2866 9.42857H67.4225C69.1536 9.42857 70.5585 10.8365 70.5585 12.5714C70.5585 14.3063 69.1536 15.7143 67.4225 15.7143Z" fill="url(#paint0_linear_59_511)"/>
<path d="M114.849 0C107.598 0 101.699 6.07384 101.699 13.5385V30.4615C101.699 37.9262 107.598 44 114.849 44C122.1 44 128 37.9262 128 30.4615V13.5385C128 6.07384 122.1 0 114.849 0ZM116.493 13.5385C116.493 14.4726 115.757 15.2308 114.849 15.2308C113.942 15.2308 113.205 14.4726 113.205 13.5385V10.1538C113.205 9.21967 113.942 8.46154 114.849 8.46154C115.757 8.46154 116.493 9.21967 116.493 10.1538V13.5385Z" fill="url(#paint1_linear_59_511)"/>
<path d="M170.082 0C157.792 0 148.164 5.20312 148.164 11.8462V32.1538C148.164 36.7019 150.026 39.6695 153.222 40.4216V42.3077C153.222 43.2419 153.978 44 154.908 44H159.966C160.897 44 161.652 43.2419 161.652 42.3077V22C161.652 21.0658 160.897 20.3077 159.966 20.3077H154.908C153.978 20.3077 153.222 21.0658 153.222 22V23.8869C152.611 24.0308 152.046 24.2525 151.536 24.5544V11.8456C151.536 7.84412 159.153 3.38406 170.082 3.38406C181.01 3.38406 188.628 7.84334 188.628 11.8456V24.5544C188.119 24.2522 187.554 24.0304 186.942 23.8869V22C186.942 21.0658 186.187 20.3077 185.256 20.3077H180.198C179.267 20.3077 178.512 21.0658 178.512 22V42.3077C178.512 43.2419 179.267 44 180.198 44H185.256C186.187 44 186.942 43.2419 186.942 42.3077V40.4216C190.139 39.6695 192 36.7019 192 32.1538V11.8462C192 5.20312 182.373 0 170.082 0Z" fill="url(#paint2_linear_59_511)"/>
<defs>
<linearGradient id="paint0_linear_59_511" x1="1.07288e-06" y1="22" x2="192" y2="22" gradientUnits="userSpaceOnUse">
<stop stop-color="#1095C9"/>
<stop offset="1" stop-color="#C51EED"/>
</linearGradient>
<linearGradient id="paint1_linear_59_511" x1="1.07288e-06" y1="22" x2="192" y2="22" gradientUnits="userSpaceOnUse">
<stop stop-color="#1095C9"/>
<stop offset="1" stop-color="#C51EED"/>
</linearGradient>
<linearGradient id="paint2_linear_59_511" x1="1.07288e-06" y1="22" x2="192" y2="22" gradientUnits="userSpaceOnUse">
<stop stop-color="#1095C9"/>
<stop offset="1" stop-color="#C51EED"/>
</linearGradient>
</defs>
</svg>
